<svg width="240" height="240" viewBox="0 0 240 240" fill="none" xmlns="http://www.w3.org/2000/svg">
<path fill-rule="evenodd" clip-rule="evenodd" d="M30 0C13.4315 0 0 13.4315 0 30V210C0 226.569 13.4315 240 30 240H210C226.569 240 240 226.569 240 210V30C240 13.4315 226.569 0 210 0H30ZM80 30C68.9543 30 60 38.9543 60 50C60 61.0457 68.9543 70 80 70H160C171.046 70 180 61.0457 180 50C180 38.9543 171.046 30 160 30H80Z" fill="#D2BB97"/>
<g style="mix-blend-mode:hard-light">
<path d="M66.4388 124.432H67.4468C68.7588 124.432 69.4148 123.792 69.4148 122.512V106.336C69.4148 105.152 68.7588 104.56 67.4468 104.56H66.4388V98.944H91.3028V107.008H83.2388V106.384C83.2388 105.136 82.5828 104.512 81.2708 104.512H78.2948V111.712H83.8148V117.28H78.2948V122.656C78.2948 123.84 78.9348 124.432 80.2148 124.432H81.2228V130H66.4388V124.432ZM89.595 124.336H90.123C91.435 124.336 92.091 123.728 92.091 122.512V114.448C92.091 113.872 91.947 113.424 91.659 113.104C91.403 112.784 90.939 112.624 90.267 112.624H89.691V106.96H99.579L100.107 109.264C100.651 108.464 101.435 107.888 102.459 107.536C103.515 107.152 104.539 106.96 105.531 106.96H108.651V112.624H104.139C103.051 112.624 102.267 112.88 101.787 113.392C101.339 113.904 101.115 114.704 101.115 115.792V122.512C101.115 123.12 101.243 123.584 101.499 123.904C101.787 124.192 102.251 124.336 102.891 124.336H103.371V130H89.595V124.336ZM119.144 130.768C116.264 130.768 114.152 130.08 112.808 128.704C111.464 127.296 110.792 125.264 110.792 122.608V114.448C110.792 113.232 110.136 112.624 108.824 112.624H107.912V106.96H119.816V122.56C119.816 123.584 120.024 124.32 120.44 124.768C120.856 125.216 121.48 125.44 122.312 125.44C123.208 125.44 123.864 125.216 124.28 124.768C124.696 124.32 124.904 123.584 124.904 122.56V114.448C124.904 113.84 124.792 113.392 124.568 113.104C124.376 112.784 123.992 112.624 123.416 112.624H122.648V106.96H133.88V122.464C133.88 123.68 134.552 124.288 135.896 124.288H136.376V130H128.312L127.976 127.072C126.728 128.416 125.432 129.376 124.088 129.952C122.744 130.496 121.096 130.768 119.144 130.768ZM139.81 97.408H148.834V103.888H139.81V97.408ZM136.834 124.336H137.842C138.546 124.336 139.042 124.176 139.33 123.856C139.65 123.536 139.81 123.056 139.81 122.416V114.496C139.81 113.28 139.154 112.672 137.842 112.672H136.834V106.96H148.834V122.512C148.834 123.728 149.49 124.336 150.802 124.336H151.81V130H136.834V124.336ZM165.196 130.72C161.58 130.72 158.892 130 157.132 128.56C155.372 127.088 154.492 124.992 154.492 122.272V112.336H151.084V106.96H154.492V102.448L163.468 100.096V106.96H169.468V112.336H163.468V123.088C163.468 123.92 163.644 124.512 163.996 124.864C164.38 125.216 164.94 125.392 165.676 125.392C166.572 125.392 167.292 125.12 167.836 124.576V122.56H174.988V127.408C172.172 129.616 168.908 130.72 165.196 130.72ZM43.0013 198.432H44.0093C45.3213 198.432 45.9773 197.792 45.9773 196.512V180.384C45.9773 179.136 45.3213 178.512 44.0093 178.512H43.0013V172.944H54.5693L60.8573 187.344L67.0973 172.944H78.6653V178.512H77.6573C76.3773 178.512 75.7373 179.136 75.7373 180.384V196.512C75.7373 197.152 75.8813 197.632 76.1693 197.952C76.4893 198.272 76.9853 198.432 77.6573 198.432H78.6653V204H64.0253V198.432H65.0333C66.3453 198.432 67.0013 197.84 67.0013 196.656V186.192L63.4013 194.544H58.2653L54.6653 186.192V196.656C54.6653 197.84 55.3213 198.432 56.6333 198.432H57.6413V204H43.0013V198.432ZM87.7215 204.72C84.8735 204.72 82.7295 204.144 81.2895 202.992C79.8815 201.808 79.1775 200.176 79.1775 198.096C79.1775 195.696 79.9775 193.904 81.5775 192.72C83.2095 191.504 85.6255 190.784 88.8255 190.56L93.0495 190.272V187.728C93.0495 186.32 92.3135 185.616 90.8415 185.616C90.0095 185.616 89.2895 185.936 88.6815 186.576V188.16H81.2895V183.072C84.3295 181.184 87.6735 180.24 91.3215 180.24C94.8735 180.24 97.5455 181.008 99.3375 182.544C101.13 184.08 102.026 186.128 102.026 188.688V196.944C102.026 198.064 102.538 198.624 103.562 198.624H104.138V204H97.2735L96.5535 200.784C95.3375 202.224 94.0895 203.248 92.8095 203.856C91.5295 204.432 89.8335 204.72 87.7215 204.72ZM89.7375 199.344C91.9455 199.344 93.0495 198.352 93.0495 196.368V194.736L89.8335 195.024C88.1055 195.152 87.2415 195.904 87.2415 197.28C87.2415 197.92 87.4495 198.432 87.8655 198.816C88.3135 199.168 88.9375 199.344 89.7375 199.344ZM105.111 198.336H105.639C106.951 198.336 107.607 197.728 107.607 196.512V188.448C107.607 187.872 107.463 187.424 107.175 187.104C106.919 186.784 106.455 186.624 105.783 186.624H105.207V180.96H115.095L115.623 183.264C116.167 182.464 116.951 181.888 117.975 181.536C119.031 181.152 120.055 180.96 121.047 180.96H124.167V186.624H119.655C118.567 186.624 117.783 186.88 117.303 187.392C116.855 187.904 116.631 188.704 116.631 189.792V196.512C116.631 197.12 116.759 197.584 117.015 197.904C117.303 198.192 117.767 198.336 118.407 198.336H118.887V204H105.111V198.336ZM123.908 198.768H124.916C125.46 198.768 125.828 198.656 126.02 198.432C126.244 198.176 126.355 197.76 126.355 197.184V178.944C126.355 178.368 126.244 177.968 126.02 177.744C125.828 177.488 125.46 177.36 124.916 177.36H123.908V172.224H137.348V177.36H135.859C135.316 177.36 134.932 177.488 134.708 177.744C134.516 177.968 134.42 178.368 134.42 178.944V189.072L137.828 186.144H136.244V180.96H150.164V186.144H147.427C146.916 186.144 146.516 186.192 146.228 186.288C145.94 186.384 145.668 186.544 145.412 186.768L142.244 189.36L147.044 197.904C147.396 198.48 147.972 198.768 148.772 198.768H151.22V204H142.532L136.724 193.872L134.42 195.744V197.184C134.42 197.76 134.516 198.176 134.708 198.432C134.932 198.656 135.316 198.768 135.859 198.768H137.348V204H123.908V198.768ZM163.313 204.768C159.121 204.768 155.857 203.744 153.521 201.696C151.185 199.648 150.017 196.624 150.017 192.624C150.017 188.432 151.105 185.328 153.281 183.312C155.457 181.264 158.577 180.24 162.641 180.24C166.609 180.24 169.617 181.312 171.665 183.456C173.745 185.568 174.785 188.4 174.785 191.952V194.256H158.897C158.897 196.176 159.233 197.536 159.905 198.336C160.577 199.136 161.761 199.536 163.457 199.536C164.641 199.536 165.697 199.328 166.625 198.912V196.992H173.969V201.264C172.721 202.416 171.249 203.296 169.553 203.904C167.857 204.48 165.777 204.768 163.313 204.768ZM165.953 189.648C165.953 188.336 165.633 187.328 164.993 186.624C164.385 185.888 163.537 185.52 162.449 185.52C161.297 185.52 160.417 185.888 159.809 186.624C159.201 187.328 158.897 188.336 158.897 189.648H165.953ZM188.633 204.72C185.017 204.72 182.329 204 180.569 202.56C178.809 201.088 177.929 198.992 177.929 196.272V186.336H174.521V180.96H177.929V176.448L186.905 174.096V180.96H192.905V186.336H186.905V197.088C186.905 197.92 187.081 198.512 187.433 198.864C187.817 199.216 188.377 199.392 189.113 199.392C190.009 199.392 190.729 199.12 191.273 198.576V196.56H198.425V201.408C195.609 203.616 192.345 204.72 188.633 204.72Z" fill="#956419"/>
</g>
</svg>
